<svg width="128" height="128" viewBox="0 0 128 128" fill="currentcolor" xmlns="http://www.w3.org/2000/svg">
<path d="M100.862 116.811C117.278 105.176 128 85.979 128 64.2674C128 28.7735 99.3462 0 64 0C28.6538 0 0 28.7735 0 64.2674C0 86.9908 11.7441 106.96 29.4698 118.388C29.4789 118.11 29.4883 117.813 29.4987 117.496L29.6231 113.685L42.5218 107.399C56.9593 100.364 59.7949 100.069 59.4966 105.631C59.4067 107.371 59.372 112.006 59.4271 115.93L59.5273 123.064L64.951 125.916C67.7383 127.381 69.3344 128.332 70.2902 127.892C71.6744 127.254 71.7157 123.701 72.087 114.571L72.6161 101.562L69.3114 99.5673C66.5139 97.8787 56.6888 90.5718 52.9278 87.3828C52.3132 86.8626 49.3714 85.0533 46.3896 83.3634C43.4078 81.6735 40.0462 79.2717 38.9196 78.0262C37.793 76.7806 35.4793 74.6525 33.7778 73.2971C30.067 70.3413 29.7451 68.9658 29.3951 54.5687L29.1235 43.3863L25.3852 42.1461C20.0215 40.3665 20.6113 38.2267 27.3789 34.9121C30.5314 33.3682 35.578 30.7198 38.5935 29.0272C49.1544 23.0992 59.0598 18.4151 62.5181 17.7133C64.437 17.3237 67.1285 16.2628 68.4992 15.3553C71.1372 13.6088 72.7479 12.5265 74.4743 12.2903C77.267 11.9083 80.3625 13.7406 88.5991 18.558L100.897 25.7509L101.464 43.7481L97.2605 46.9918C94.9489 48.7758 92.486 50.2354 91.7874 50.2354C91.0893 50.2354 88.3667 51.5058 85.7383 53.0586C80.9057 55.9135 75.1765 58.2436 72.9894 58.2436C72.144 58.2436 71.802 55.4036 71.8156 48.4837L71.8376 38.7236L60.0284 34.4675V58.339L68.0031 64.2524C72.3893 67.5049 78.4451 71.8228 81.4605 73.848C84.4761 75.8732 88.358 78.7088 90.0872 80.1494C91.8163 81.5899 94.9811 84.0276 97.1201 85.5666L101.009 88.3647L100.862 116.811Z" fill="currentcolor"/>
</svg>
