<svg width="128" height="128" viewBox="0 0 128 128" fill="none" xmlns="http://www.w3.org/2000/svg">
<path fill-rule="evenodd" clip-rule="evenodd" d="M64 120C94.9279 120 120 94.9279 120 64C120 33.0721 94.9279 8 64 8C33.0721 8 8 33.0721 8 64C8 94.9279 33.0721 120 64 120ZM64 128C99.3462 128 128 99.3462 128 64C128 28.6538 99.3462 0 64 0C28.6538 0 0 28.6538 0 64C0 99.3462 28.6538 128 64 128Z" fill="white"/>
<path d="M30.9196 118.799C31.1236 117.921 31.1467 116.811 31.2144 114.752L31.3282 111.284L43.1193 105.567C56.3171 99.1666 58.9093 98.8979 58.6365 103.958C58.5544 105.541 58.5227 109.757 58.573 113.327L58.6646 119.817L63.6226 122.411C66.1733 123.746 67.6328 124.611 68.5062 124.208C69.7688 123.624 69.8067 120.39 70.1459 112.09L70.6296 100.256L67.6086 98.4417C65.0513 96.9055 56.0699 90.2583 52.6318 87.3573C52.0699 86.884 49.3807 85.2381 46.655 83.7007C43.9292 82.1635 40.8562 79.9785 39.8264 78.8454C38.7966 77.7123 36.6815 75.7763 35.1261 74.5433C31.734 71.8543 31.4397 70.603 31.1197 57.5058L30.8714 47.333L27.4541 46.2047C22.551 44.5858 23.0901 42.6393 29.2767 39.6239C32.1585 38.2194 36.7717 35.8101 39.5283 34.2704C49.1824 28.8775 58.2372 24.6163 61.3986 23.9779C63.1528 23.6235 65.6132 22.6584 66.8662 21.8328C69.2763 20.2449 70.7484 19.2605 72.3255 19.0449C74.8791 18.6958 77.7082 20.3623 85.2401 24.7464L96.482 31.2898L97 47.6621L93.1579 50.613C91.0448 52.2359 88.7933 53.5637 88.1547 53.5637C87.5165 53.5637 85.0277 54.7194 82.625 56.132C78.2074 58.7292 72.9701 60.8489 70.9708 60.8489C70.198 60.8489 69.8853 58.2653 69.8978 51.9702L69.9179 43.0913L59.1227 39.2194V60.9357L66.4126 66.3152C70.4222 69.274 75.958 73.2021 78.7146 75.0445C81.4712 76.8868 85.0198 79.4664 86.6005 80.7769C88.1812 82.0874 91.0742 84.305 93.0295 85.7051L96.5847 88.2505L96.4238 119.191C86.9151 124.789 75.8326 128 64 128C51.894 128 40.5731 124.639 30.9196 118.799Z" fill="white"/>
</svg>
